<svg xmlns="http://www.w3.org/2000/svg" width="3200" height="2200" viewBox="0 0 3200 2200">

<style>
  .title { font: 700 48px sans-serif; fill: #1f2933; }
  .subtitle { font: 26px sans-serif; fill: #52606d; }
  .edge { stroke: #8a97a8; stroke-opacity: 0.55; }
  .node { stroke: #15212f; stroke-width: 2; }
  .node-label { font: 700 21px sans-serif; fill: #ffffff; dominant-baseline: middle; text-anchor: middle; pointer-events: none; }
  .legend-title { font: 700 34px sans-serif; fill: #1f2933; }
  .legend-text { font: 21px sans-serif; fill: #1f2933; }
  .group-text { font: 22px sans-serif; fill: #1f2933; }
</style>

<rect width="100%" height="100%" fill="#f7f4ed"/>
<rect x="35" y="85" width="2170" height="2070" rx="36" fill="#ffffff" stroke="#d8d4c9"/>
<rect x="2205" y="85" width="960" height="2070" rx="36" fill="#ffffff" stroke="#d8d4c9"/>
<text x="70" y="58" class="title">Thermal-Zone Adjacency Graph</text>
<text x="70" y="94" class="subtitle">56 nodes, 113 undirected edges. Edge width indicates shared inter-zone surface pairs.</text>
<line class="edge" x1="638.4" y1="1917.8" x2="486.7" y2="1781.8" stroke-width="1.4"><title>THERMAL ZONE: HALL-1-1 -- THERMAL ZONE: HALL-1-13 | shared_surface_pairs=1</title></line>
<line class="edge" x1="638.4" y1="1917.8" x2="740.1" y2="1860.5" stroke-width="2.1"><title>THERMAL ZONE: HALL-1-1 -- THERMAL ZONE: HALL-1-2 | shared_surface_pairs=2</title></line>
<line class="edge" x1="638.4" y1="1917.8" x2="700.1" y2="1990.0" stroke-width="1.4"><title>THERMAL ZONE: HALL-1-1 -- THERMAL ZONE: P1-1-COMMERCE 1 | shared_surface_pairs=1</title></line>
<line class="edge" x1="638.4" y1="1917.8" x2="809.0" y2="1965.7" stroke-width="2.1"><title>THERMAL ZONE: HALL-1-1 -- THERMAL ZONE: P1-1-DINING 1 | shared_surface_pairs=2</title></line>
<line class="edge" x1="638.4" y1="1917.8" x2="538.9" y2="1978.3" stroke-width="1.4"><title>THERMAL ZONE: HALL-1-1 -- THERMAL ZONE: P1-1-OFFICE 1 | shared_surface_pairs=1</title></line>
<line class="edge" x1="638.4" y1="1917.8" x2="506.4" y2="1933.4" stroke-width="1.4"><title>THERMAL ZONE: HALL-1-1 -- THERMAL ZONE: P1-1-OFFICE 2 | shared_surface_pairs=1</title></line>
<line class="edge" x1="886.9" y1="1309.2" x2="761.8" y2="1496.6" stroke-width="2.1"><title>THERMAL ZONE: HALL-1-10 -- THERMAL ZONE: HALL-1-11 | shared_surface_pairs=2</title></line>
<line class="edge" x1="886.9" y1="1309.2" x2="1098.1" y2="1449.8" stroke-width="1.4"><title>THERMAL ZONE: HALL-1-10 -- THERMAL ZONE: HALL-1-5 | shared_surface_pairs=1</title></line>
<line class="edge" x1="886.9" y1="1309.2" x2="1204.9" y2="1313.0" stroke-width="1.4"><title>THERMAL ZONE: HALL-1-10 -- THERMAL ZONE: HALL-1-6 | shared_surface_pairs=1</title></line>
<line class="edge" x1="886.9" y1="1309.2" x2="1246.2" y2="1177.2" stroke-width="1.4"><title>THERMAL ZONE: HALL-1-10 -- THERMAL ZONE: HALL-1-7 | shared_surface_pairs=1</title></line>
<line class="edge" x1="886.9" y1="1309.2" x2="865.9" y2="1125.1" stroke-width="2.1"><title>THERMAL ZONE: HALL-1-10 -- THERMAL ZONE: HALL-1-9 | shared_surface_pairs=2</title></line>
<line class="edge" x1="886.9" y1="1309.2" x2="806.2" y2="1213.3" stroke-width="2.1"><title>THERMAL ZONE: HALL-1-10 -- THERMAL ZONE: P1-8-RESTROOM 1 | shared_surface_pairs=2</title></line>
<line class="edge" x1="886.9" y1="1309.2" x2="752.0" y2="1398.9" stroke-width="2.1"><title>THERMAL ZONE: HALL-1-10 -- THERMAL ZONE: P1-9-COMMERCE 1 | shared_surface_pairs=2</title></line>
<line class="edge" x1="761.8" y1="1496.6" x2="605.1" y2="1677.1" stroke-width="2.1"><title>THERMAL ZONE: HALL-1-11 -- THERMAL ZONE: HALL-1-12 | shared_surface_pairs=2</title></line>
<line class="edge" x1="761.8" y1="1496.6" x2="1008.5" y2="1600.1" stroke-width="1.4"><title>THERMAL ZONE: HALL-1-11 -- THERMAL ZONE: HALL-1-4 | shared_surface_pairs=1</title></line>
<line class="edge" x1="761.8" y1="1496.6" x2="1098.1" y2="1449.8" stroke-width="1.4"><title>THERMAL ZONE: HALL-1-11 -- THERMAL ZONE: HALL-1-5 | shared_surface_pairs=1</title></line>
<line class="edge" x1="761.8" y1="1496.6" x2="610.4" y2="1583.2" stroke-width="2.1"><title>THERMAL ZONE: HALL-1-11 -- THERMAL ZONE: P1-10-RESTROOM 1 | shared_surface_pairs=2</title></line>
<line class="edge" x1="761.8" y1="1496.6" x2="752.0" y2="1398.9" stroke-width="2.1"><title>THERMAL ZONE: HALL-1-11 -- THERMAL ZONE: P1-9-COMMERCE 1 | shared_surface_pairs=2</title></line>
<line class="edge" x1="605.1" y1="1677.1" x2="486.7" y2="1781.8" stroke-width="2.1"><title>THERMAL ZONE: HALL-1-12 -- THERMAL ZONE: HALL-1-13 | shared_surface_pairs=2</title></line>
<line class="edge" x1="605.1" y1="1677.1" x2="740.1" y2="1860.5" stroke-width="1.4"><title>THERMAL ZONE: HALL-1-12 -- THERMAL ZONE: HALL-1-2 | shared_surface_pairs=1</title></line>
<line class="edge" x1="605.1" y1="1677.1" x2="951.2" y2="1751.3" stroke-width="1.4"><title>THERMAL ZONE: HALL-1-12 -- THERMAL ZONE: HALL-1-3 | shared_surface_pairs=1</title></line>
<line class="edge" x1="605.1" y1="1677.1" x2="1008.5" y2="1600.1" stroke-width="1.4"><title>THERMAL ZONE: HALL-1-12 -- THERMAL ZONE: HALL-1-4 | shared_surface_pairs=1</title></line>
<line class="edge" x1="605.1" y1="1677.1" x2="610.4" y2="1583.2" stroke-width="2.1"><title>THERMAL ZONE: HALL-1-12 -- THERMAL ZONE: P1-10-RESTROOM 1 | shared_surface_pairs=2</title></line>
<line class="edge" x1="605.1" y1="1677.1" x2="208.8" y2="1749.8" stroke-width="1.4"><title>THERMAL ZONE: HALL-1-12 -- THERMAL ZONE: P1-11-COMMERCE 1 | shared_surface_pairs=1</title></line>
<line class="edge" x1="605.1" y1="1677.1" x2="321.5" y2="1773.7" stroke-width="1.4"><title>THERMAL ZONE: HALL-1-12 -- THERMAL ZONE: P1-11-COMMERCE 2 | shared_surface_pairs=1</title></line>
<line class="edge" x1="605.1" y1="1677.1" x2="416.9" y2="1713.5" stroke-width="2.1"><title>THERMAL ZONE: HALL-1-12 -- THERMAL ZONE: P1-11-OFFICE 1 | shared_surface_pairs=2</title></line>
<line class="edge" x1="605.1" y1="1677.1" x2="251.1" y2="1715.0" stroke-width="1.4"><title>THERMAL ZONE: HALL-1-12 -- THERMAL ZONE: P1-11-OFFICE 2 | shared_surface_pairs=1</title></line>
<line class="edge" x1="486.7" y1="1781.8" x2="740.1" y2="1860.5" stroke-width="1.4"><title>THERMAL ZONE: HALL-1-13 -- THERMAL ZONE: HALL-1-2 | shared_surface_pairs=1</title></line>
<line class="edge" x1="486.7" y1="1781.8" x2="208.8" y2="1749.8" stroke-width="1.4"><title>THERMAL ZONE: HALL-1-13 -- THERMAL ZONE: P1-11-COMMERCE 1 | shared_surface_pairs=1</title></line>
<line class="edge" x1="486.7" y1="1781.8" x2="321.5" y2="1773.7" stroke-width="2.1"><title>THERMAL ZONE: HALL-1-13 -- THERMAL ZONE: P1-11-COMMERCE 2 | shared_surface_pairs=2</title></line>
<line class="edge" x1="486.7" y1="1781.8" x2="416.9" y2="1713.5" stroke-width="1.4"><title>THERMAL ZONE: HALL-1-13 -- THERMAL ZONE: P1-11-OFFICE 1 | shared_surface_pairs=1</title></line>
<line class="edge" x1="486.7" y1="1781.8" x2="251.1" y2="1715.0" stroke-width="1.4"><title>THERMAL ZONE: HALL-1-13 -- THERMAL ZONE: P1-11-OFFICE 2 | shared_surface_pairs=1</title></line>
<line class="edge" x1="740.1" y1="1860.5" x2="951.2" y2="1751.3" stroke-width="2.1"><title>THERMAL ZONE: HALL-1-2 -- THERMAL ZONE: HALL-1-3 | shared_surface_pairs=2</title></line>
<line class="edge" x1="740.1" y1="1860.5" x2="700.1" y2="1990.0" stroke-width="1.4"><title>THERMAL ZONE: HALL-1-2 -- THERMAL ZONE: P1-1-COMMERCE 1 | shared_surface_pairs=1</title></line>
<line class="edge" x1="740.1" y1="1860.5" x2="809.0" y2="1965.7" stroke-width="1.4"><title>THERMAL ZONE: HALL-1-2 -- THERMAL ZONE: P1-1-DINING 1 | shared_surface_pairs=1</title></line>
<line class="edge" x1="740.1" y1="1860.5" x2="538.9" y2="1978.3" stroke-width="1.4"><title>THERMAL ZONE: HALL-1-2 -- THERMAL ZONE: P1-1-OFFICE 1 | shared_surface_pairs=1</title></line>
<line class="edge" x1="740.1" y1="1860.5" x2="506.4" y2="1933.4" stroke-width="2.1"><title>THERMAL ZONE: HALL-1-2 -- THERMAL ZONE: P1-1-OFFICE 2 | shared_surface_pairs=2</title></line>
<line class="edge" x1="740.1" y1="1860.5" x2="958.3" y2="1864.1" stroke-width="2.1"><title>THERMAL ZONE: HALL-1-2 -- THERMAL ZONE: P1-2-BREAKROOM 1 | shared_surface_pairs=2</title></line>
<line class="edge" x1="740.1" y1="1860.5" x2="1045.1" y2="1817.9" stroke-width="1.4"><title>THERMAL ZONE: HALL-1-2 -- THERMAL ZONE: P1-2-DINING 1 | shared_surface_pairs=1</title></line>
<line class="edge" x1="740.1" y1="1860.5" x2="1108.7" y2="1857.1" stroke-width="1.4"><title>THERMAL ZONE: HALL-1-2 -- THERMAL ZONE: P1-2-RESTROOM 1 | shared_surface_pairs=1</title></line>
<line class="edge" x1="951.2" y1="1751.3" x2="1008.5" y2="1600.1" stroke-width="2.1"><title>THERMAL ZONE: HALL-1-3 -- THERMAL ZONE: HALL-1-4 | shared_surface_pairs=2</title></line>
<line class="edge" x1="951.2" y1="1751.3" x2="958.3" y2="1864.1" stroke-width="1.4"><title>THERMAL ZONE: HALL-1-3 -- THERMAL ZONE: P1-2-BREAKROOM 1 | shared_surface_pairs=1</title></line>
<line class="edge" x1="951.2" y1="1751.3" x2="1045.1" y2="1817.9" stroke-width="2.1"><title>THERMAL ZONE: HALL-1-3 -- THERMAL ZONE: P1-2-DINING 1 | shared_surface_pairs=2</title></line>
<line class="edge" x1="951.2" y1="1751.3" x2="1108.7" y2="1857.1" stroke-width="1.4"><title>THERMAL ZONE: HALL-1-3 -- THERMAL ZONE: P1-2-RESTROOM 1 | shared_surface_pairs=1</title></line>
<line class="edge" x1="951.2" y1="1751.3" x2="1090.4" y2="1683.6" stroke-width="2.1"><title>THERMAL ZONE: HALL-1-3 -- THERMAL ZONE: P1-3-COMMERCE 1 | shared_surface_pairs=2</title></line>
<line class="edge" x1="1008.5" y1="1600.1" x2="1098.1" y2="1449.8" stroke-width="2.1"><title>THERMAL ZONE: HALL-1-4 -- THERMAL ZONE: HALL-1-5 | shared_surface_pairs=2</title></line>
<line class="edge" x1="1008.5" y1="1600.1" x2="1090.4" y2="1683.6" stroke-width="2.1"><title>THERMAL ZONE: HALL-1-4 -- THERMAL ZONE: P1-3-COMMERCE 1 | shared_surface_pairs=2</title></line>
<line class="edge" x1="1008.5" y1="1600.1" x2="1197.3" y2="1552.4" stroke-width="2.1"><title>THERMAL ZONE: HALL-1-4 -- THERMAL ZONE: P1-4-COMMERCE 1 | shared_surface_pairs=2</title></line>
<line class="edge" x1="1008.5" y1="1600.1" x2="1204.9" y2="1514.2" stroke-width="1.4"><title>THERMAL ZONE: HALL-1-4 -- THERMAL ZONE: P1-4-DINING 1 | shared_surface_pairs=1</title></line>
<line class="edge" x1="1098.1" y1="1449.8" x2="1204.9" y2="1313.0" stroke-width="2.1"><title>THERMAL ZONE: HALL-1-5 -- THERMAL ZONE: HALL-1-6 | shared_surface_pairs=2</title></line>
<line class="edge" x1="1098.1" y1="1449.8" x2="1197.3" y2="1552.4" stroke-width="1.4"><title>THERMAL ZONE: HALL-1-5 -- THERMAL ZONE: P1-4-COMMERCE 1 | shared_surface_pairs=1</title></line>
<line class="edge" x1="1098.1" y1="1449.8" x2="1204.9" y2="1514.2" stroke-width="2.1"><title>THERMAL ZONE: HALL-1-5 -- THERMAL ZONE: P1-4-DINING 1 | shared_surface_pairs=2</title></line>
<line class="edge" x1="1098.1" y1="1449.8" x2="1255.9" y2="1384.6" stroke-width="2.1"><title>THERMAL ZONE: HALL-1-5 -- THERMAL ZONE: P1-5-COMMERCE 1 | shared_surface_pairs=2</title></line>
<line class="edge" x1="1204.9" y1="1313.0" x2="1246.2" y2="1177.2" stroke-width="2.1"><title>THERMAL ZONE: HALL-1-6 -- THERMAL ZONE: HALL-1-7 | shared_surface_pairs=2</title></line>
<line class="edge" x1="1204.9" y1="1313.0" x2="1255.9" y2="1384.6" stroke-width="2.1"><title>THERMAL ZONE: HALL-1-6 -- THERMAL ZONE: P1-5-COMMERCE 1 | shared_surface_pairs=2</title></line>
<line class="edge" x1="1204.9" y1="1313.0" x2="1327.3" y2="1244.7" stroke-width="2.1"><title>THERMAL ZONE: HALL-1-6 -- THERMAL ZONE: P1-6-COMMERCE 1 | shared_surface_pairs=2</title></line>
<line class="edge" x1="1246.2" y1="1177.2" x2="1397.7" y2="1037.4" stroke-width="2.1"><title>THERMAL ZONE: HALL-1-7 -- THERMAL ZONE: HALL-1-8 | shared_surface_pairs=2</title></line>
<line class="edge" x1="1246.2" y1="1177.2" x2="865.9" y2="1125.1" stroke-width="1.4"><title>THERMAL ZONE: HALL-1-7 -- THERMAL ZONE: HALL-1-9 | shared_surface_pairs=1</title></line>
<line class="edge" x1="1246.2" y1="1177.2" x2="1327.3" y2="1244.7" stroke-width="2.1"><title>THERMAL ZONE: HALL-1-7 -- THERMAL ZONE: P1-6-COMMERCE 1 | shared_surface_pairs=2</title></line>
<line class="edge" x1="1246.2" y1="1177.2" x2="1410.7" y2="1119.3" stroke-width="2.1"><title>THERMAL ZONE: HALL-1-7 -- THERMAL ZONE: P1-7-DINING 1 | shared_surface_pairs=2</title></line>
<line class="edge" x1="1246.2" y1="1177.2" x2="1457.1" y2="1082.2" stroke-width="1.4"><title>THERMAL ZONE: HALL-1-7 -- THERMAL ZONE: P1-7-OFFICE 1 | shared_surface_pairs=1</title></line>
<line class="edge" x1="1397.7" y1="1037.4" x2="865.9" y2="1125.1" stroke-width="1.4"><title>THERMAL ZONE: HALL-1-8 -- THERMAL ZONE: HALL-1-9 | shared_surface_pairs=1</title></line>
<line class="edge" x1="1397.7" y1="1037.4" x2="1823.2" y2="807.4" stroke-width="1.4"><title>THERMAL ZONE: HALL-1-8 -- THERMAL ZONE: HALL-2-1 | shared_surface_pairs=1</title></line>
<line class="edge" x1="1397.7" y1="1037.4" x2="1410.7" y2="1119.3" stroke-width="1.4"><title>THERMAL ZONE: HALL-1-8 -- THERMAL ZONE: P1-7-DINING 1 | shared_surface_pairs=1</title></line>
<line class="edge" x1="1397.7" y1="1037.4" x2="1457.1" y2="1082.2" stroke-width="2.8"><title>THERMAL ZONE: HALL-1-8 -- THERMAL ZONE: P1-7-OFFICE 1 | shared_surface_pairs=3</title></line>
<line class="edge" x1="865.9" y1="1125.1" x2="477.4" y2="871.3" stroke-width="1.4"><title>THERMAL ZONE: HALL-1-9 -- THERMAL ZONE: HALL-4-4 | shared_surface_pairs=1</title></line>
<line class="edge" x1="865.9" y1="1125.1" x2="806.2" y2="1213.3" stroke-width="2.1"><title>THERMAL ZONE: HALL-1-9 -- THERMAL ZONE: P1-8-RESTROOM 1 | shared_surface_pairs=2</title></line>
<line class="edge" x1="1823.2" y1="807.4" x2="1971.7" y2="664.8" stroke-width="2.1"><title>THERMAL ZONE: HALL-2-1 -- THERMAL ZONE: HALL-2-2 | shared_surface_pairs=2</title></line>
<line class="edge" x1="1823.2" y1="807.4" x2="1990.8" y2="752.3" stroke-width="2.1"><title>THERMAL ZONE: HALL-2-1 -- THERMAL ZONE: P2-1-COMMERCE 2 | shared_surface_pairs=2</title></line>
<line class="edge" x1="1823.2" y1="807.4" x2="2075.0" y2="719.8" stroke-width="1.4"><title>THERMAL ZONE: HALL-2-1 -- THERMAL ZONE: P2-1-COMMERCE 3 | shared_surface_pairs=1</title></line>
<line class="edge" x1="1971.7" y1="664.8" x2="1957.6" y2="530.1" stroke-width="2.1"><title>THERMAL ZONE: HALL-2-2 -- THERMAL ZONE: HALL-2-3 | shared_surface_pairs=2</title></line>
<line class="edge" x1="1971.7" y1="664.8" x2="1990.8" y2="752.3" stroke-width="1.4"><title>THERMAL ZONE: HALL-2-2 -- THERMAL ZONE: P2-1-COMMERCE 2 | shared_surface_pairs=1</title></line>
<line class="edge" x1="1971.7" y1="664.8" x2="2075.0" y2="719.8" stroke-width="2.1"><title>THERMAL ZONE: HALL-2-2 -- THERMAL ZONE: P2-1-COMMERCE 3 | shared_surface_pairs=2</title></line>
<line class="edge" x1="1971.7" y1="664.8" x2="2058.8" y2="581.9" stroke-width="2.1"><title>THERMAL ZONE: HALL-2-2 -- THERMAL ZONE: P2-2-RESTROOM 1 | shared_surface_pairs=2</title></line>
<line class="edge" x1="1957.6" y1="530.1" x2="1752.6" y2="342.2" stroke-width="1.4"><title>THERMAL ZONE: HALL-2-3 -- THERMAL ZONE: HALL-3-1 | shared_surface_pairs=1</title></line>
<line class="edge" x1="1957.6" y1="530.1" x2="2058.8" y2="581.9" stroke-width="2.8"><title>THERMAL ZONE: HALL-2-3 -- THERMAL ZONE: P2-2-RESTROOM 1 | shared_surface_pairs=3</title></line>
<line class="edge" x1="1752.6" y1="342.2" x2="1379.3" y2="286.4" stroke-width="2.1"><title>THERMAL ZONE: HALL-3-1 -- THERMAL ZONE: HALL-3-2 | shared_surface_pairs=2</title></line>
<line class="edge" x1="1752.6" y1="342.2" x2="1713.3" y2="271.4" stroke-width="2.1"><title>THERMAL ZONE: HALL-3-1 -- THERMAL ZONE: P3-1-COMMERCE 1 | shared_surface_pairs=2</title></line>
<line class="edge" x1="1752.6" y1="342.2" x2="1906.9" y2="289.4" stroke-width="2.8"><title>THERMAL ZONE: HALL-3-1 -- THERMAL ZONE: P3-1-DINING 1 | shared_surface_pairs=3</title></line>
<line class="edge" x1="1379.3" y1="286.4" x2="958.5" y2="294.3" stroke-width="2.1"><title>THERMAL ZONE: HALL-3-2 -- THERMAL ZONE: HALL-3-3 | shared_surface_pairs=2</title></line>
<line class="edge" x1="1379.3" y1="286.4" x2="1713.3" y2="271.4" stroke-width="1.4"><title>THERMAL ZONE: HALL-3-2 -- THERMAL ZONE: P3-1-COMMERCE 1 | shared_surface_pairs=1</title></line>
<line class="edge" x1="1379.3" y1="286.4" x2="1094.4" y2="233.9" stroke-width="1.4"><title>THERMAL ZONE: HALL-3-2 -- THERMAL ZONE: P3-2-RESTROOM 1 | shared_surface_pairs=1</title></line>
<line class="edge" x1="958.5" y1="294.3" x2="518.3" y2="444.8" stroke-width="1.4"><title>THERMAL ZONE: HALL-3-3 -- THERMAL ZONE: HALL-4-1 | shared_surface_pairs=1</title></line>
<line class="edge" x1="958.5" y1="294.3" x2="886.7" y2="230.0" stroke-width="2.8"><title>THERMAL ZONE: HALL-3-3 -- THERMAL ZONE: P3-2-DINING 1 | shared_surface_pairs=3</title></line>
<line class="edge" x1="958.5" y1="294.3" x2="1094.4" y2="233.9" stroke-width="2.1"><title>THERMAL ZONE: HALL-3-3 -- THERMAL ZONE: P3-2-RESTROOM 1 | shared_surface_pairs=2</title></line>
<line class="edge" x1="518.3" y1="444.8" x2="338.8" y2="567.4" stroke-width="2.1"><title>THERMAL ZONE: HALL-4-1 -- THERMAL ZONE: HALL-4-2 | shared_surface_pairs=2</title></line>
<line class="edge" x1="518.3" y1="444.8" x2="350.5" y2="481.7" stroke-width="2.8"><title>THERMAL ZONE: HALL-4-1 -- THERMAL ZONE: P4-1-COMMERCE 1 | shared_surface_pairs=3</title></line>
<line class="edge" x1="338.8" y1="567.4" x2="321.2" y2="713.8" stroke-width="2.1"><title>THERMAL ZONE: HALL-4-2 -- THERMAL ZONE: HALL-4-3 | shared_surface_pairs=2</title></line>
<line class="edge" x1="338.8" y1="567.4" x2="350.5" y2="481.7" stroke-width="2.1"><title>THERMAL ZONE: HALL-4-2 -- THERMAL ZONE: P4-1-COMMERCE 1 | shared_surface_pairs=2</title></line>
<line class="edge" x1="338.8" y1="567.4" x2="165.0" y2="608.4" stroke-width="2.1"><title>THERMAL ZONE: HALL-4-2 -- THERMAL ZONE: P4-2-COMMERCE 1 | shared_surface_pairs=2</title></line>
<line class="edge" x1="338.8" y1="567.4" x2="206.2" y2="646.1" stroke-width="1.4"><title>THERMAL ZONE: HALL-4-2 -- THERMAL ZONE: P4-2-COMMERCE 2 | shared_surface_pairs=1</title></line>
<line class="edge" x1="321.2" y1="713.8" x2="477.4" y2="871.3" stroke-width="2.1"><title>THERMAL ZONE: HALL-4-3 -- THERMAL ZONE: HALL-4-4 | shared_surface_pairs=2</title></line>
<line class="edge" x1="321.2" y1="713.8" x2="165.0" y2="608.4" stroke-width="1.4"><title>THERMAL ZONE: HALL-4-3 -- THERMAL ZONE: P4-2-COMMERCE 1 | shared_surface_pairs=1</title></line>
<line class="edge" x1="321.2" y1="713.8" x2="206.2" y2="646.1" stroke-width="2.1"><title>THERMAL ZONE: HALL-4-3 -- THERMAL ZONE: P4-2-COMMERCE 2 | shared_surface_pairs=2</title></line>
<line class="edge" x1="321.2" y1="713.8" x2="256.3" y2="777.2" stroke-width="2.1"><title>THERMAL ZONE: HALL-4-3 -- THERMAL ZONE: P4-3-COMMERCE 1 | shared_surface_pairs=2</title></line>
<line class="edge" x1="321.2" y1="713.8" x2="337.9" y2="809.6" stroke-width="1.4"><title>THERMAL ZONE: HALL-4-3 -- THERMAL ZONE: P4-3-COMMERCE 2 | shared_surface_pairs=1</title></line>
<line class="edge" x1="477.4" y1="871.3" x2="256.3" y2="777.2" stroke-width="1.4"><title>THERMAL ZONE: HALL-4-4 -- THERMAL ZONE: P4-3-COMMERCE 1 | shared_surface_pairs=1</title></line>
<line class="edge" x1="477.4" y1="871.3" x2="337.9" y2="809.6" stroke-width="2.1"><title>THERMAL ZONE: HALL-4-4 -- THERMAL ZONE: P4-3-COMMERCE 2 | shared_surface_pairs=2</title></line>
<line class="edge" x1="700.1" y1="1990.0" x2="809.0" y2="1965.7" stroke-width="1.4"><title>THERMAL ZONE: P1-1-COMMERCE 1 -- THERMAL ZONE: P1-1-DINING 1 | shared_surface_pairs=1</title></line>
<line class="edge" x1="700.1" y1="1990.0" x2="538.9" y2="1978.3" stroke-width="1.4"><title>THERMAL ZONE: P1-1-COMMERCE 1 -- THERMAL ZONE: P1-1-OFFICE 1 | shared_surface_pairs=1</title></line>
<line class="edge" x1="538.9" y1="1978.3" x2="506.4" y2="1933.4" stroke-width="1.4"><title>THERMAL ZONE: P1-1-OFFICE 1 -- THERMAL ZONE: P1-1-OFFICE 2 | shared_surface_pairs=1</title></line>
<line class="edge" x1="208.8" y1="1749.8" x2="321.5" y2="1773.7" stroke-width="1.4"><title>THERMAL ZONE: P1-11-COMMERCE 1 -- THERMAL ZONE: P1-11-COMMERCE 2 | shared_surface_pairs=1</title></line>
<line class="edge" x1="208.8" y1="1749.8" x2="251.1" y2="1715.0" stroke-width="1.4"><title>THERMAL ZONE: P1-11-COMMERCE 1 -- THERMAL ZONE: P1-11-OFFICE 2 | shared_surface_pairs=1</title></line>
<line class="edge" x1="416.9" y1="1713.5" x2="251.1" y2="1715.0" stroke-width="1.4"><title>THERMAL ZONE: P1-11-OFFICE 1 -- THERMAL ZONE: P1-11-OFFICE 2 | shared_surface_pairs=1</title></line>
<line class="edge" x1="958.3" y1="1864.1" x2="1108.7" y2="1857.1" stroke-width="1.4"><title>THERMAL ZONE: P1-2-BREAKROOM 1 -- THERMAL ZONE: P1-2-RESTROOM 1 | shared_surface_pairs=1</title></line>
<line class="edge" x1="1045.1" y1="1817.9" x2="1108.7" y2="1857.1" stroke-width="1.4"><title>THERMAL ZONE: P1-2-DINING 1 -- THERMAL ZONE: P1-2-RESTROOM 1 | shared_surface_pairs=1</title></line>
<line class="edge" x1="1197.3" y1="1552.4" x2="1204.9" y2="1514.2" stroke-width="1.4"><title>THERMAL ZONE: P1-4-COMMERCE 1 -- THERMAL ZONE: P1-4-DINING 1 | shared_surface_pairs=1</title></line>
<line class="edge" x1="1410.7" y1="1119.3" x2="1457.1" y2="1082.2" stroke-width="1.4"><title>THERMAL ZONE: P1-7-DINING 1 -- THERMAL ZONE: P1-7-OFFICE 1 | shared_surface_pairs=1</title></line>
<line class="edge" x1="1990.8" y1="752.3" x2="2075.0" y2="719.8" stroke-width="1.4"><title>THERMAL ZONE: P2-1-COMMERCE 2 -- THERMAL ZONE: P2-1-COMMERCE 3 | shared_surface_pairs=1</title></line>
<line class="edge" x1="1713.3" y1="271.4" x2="1906.9" y2="289.4" stroke-width="1.4"><title>THERMAL ZONE: P3-1-COMMERCE 1 -- THERMAL ZONE: P3-1-DINING 1 | shared_surface_pairs=1</title></line>
<line class="edge" x1="886.7" y1="230.0" x2="1094.4" y2="233.9" stroke-width="1.4"><title>THERMAL ZONE: P3-2-DINING 1 -- THERMAL ZONE: P3-2-RESTROOM 1 | shared_surface_pairs=1</title></line>
<line class="edge" x1="165.0" y1="608.4" x2="206.2" y2="646.1" stroke-width="1.4"><title>THERMAL ZONE: P4-2-COMMERCE 1 -- THERMAL ZONE: P4-2-COMMERCE 2 | shared_surface_pairs=1</title></line>
<line class="edge" x1="256.3" y1="777.2" x2="337.9" y2="809.6" stroke-width="1.4"><title>THERMAL ZONE: P4-3-COMMERCE 1 -- THERMAL ZONE: P4-3-COMMERCE 2 | shared_surface_pairs=1</title></line>
<circle class="node" cx="638.4" cy="1917.8" r="25" fill="#2f6f73"><title>0: THERMAL ZONE: HALL-1-1 | group=HALL</title></circle>
<text class="node-label" x="638.4" y="1918.3">0</text>
<circle class="node" cx="886.9" cy="1309.2" r="25" fill="#2f6f73"><title>1: THERMAL ZONE: HALL-1-10 | group=HALL</title></circle>
<text class="node-label" x="886.9" y="1309.7">1</text>
<circle class="node" cx="761.8" cy="1496.6" r="25" fill="#2f6f73"><title>2: THERMAL ZONE: HALL-1-11 | group=HALL</title></circle>
<text class="node-label" x="761.8" y="1497.1">2</text>
<circle class="node" cx="605.1" cy="1677.1" r="25" fill="#2f6f73"><title>3: THERMAL ZONE: HALL-1-12 | group=HALL</title></circle>
<text class="node-label" x="605.1" y="1677.6">3</text>
<circle class="node" cx="486.7" cy="1781.8" r="25" fill="#2f6f73"><title>4: THERMAL ZONE: HALL-1-13 | group=HALL</title></circle>
<text class="node-label" x="486.7" y="1782.3">4</text>
<circle class="node" cx="740.1" cy="1860.5" r="25" fill="#2f6f73"><title>5: THERMAL ZONE: HALL-1-2 | group=HALL</title></circle>
<text class="node-label" x="740.1" y="1861.0">5</text>
<circle class="node" cx="951.2" cy="1751.3" r="25" fill="#2f6f73"><title>6: THERMAL ZONE: HALL-1-3 | group=HALL</title></circle>
<text class="node-label" x="951.2" y="1751.8">6</text>
<circle class="node" cx="1008.5" cy="1600.1" r="25" fill="#2f6f73"><title>7: THERMAL ZONE: HALL-1-4 | group=HALL</title></circle>
<text class="node-label" x="1008.5" y="1600.6">7</text>
<circle class="node" cx="1098.1" cy="1449.8" r="25" fill="#2f6f73"><title>8: THERMAL ZONE: HALL-1-5 | group=HALL</title></circle>
<text class="node-label" x="1098.1" y="1450.3">8</text>
<circle class="node" cx="1204.9" cy="1313.0" r="25" fill="#2f6f73"><title>9: THERMAL ZONE: HALL-1-6 | group=HALL</title></circle>
<text class="node-label" x="1204.9" y="1313.5">9</text>
<circle class="node" cx="1246.2" cy="1177.2" r="25" fill="#2f6f73"><title>10: THERMAL ZONE: HALL-1-7 | group=HALL</title></circle>
<text class="node-label" x="1246.2" y="1177.7">10</text>
<circle class="node" cx="1397.7" cy="1037.4" r="25" fill="#2f6f73"><title>11: THERMAL ZONE: HALL-1-8 | group=HALL</title></circle>
<text class="node-label" x="1397.7" y="1037.9">11</text>
<circle class="node" cx="865.9" cy="1125.1" r="25" fill="#2f6f73"><title>12: THERMAL ZONE: HALL-1-9 | group=HALL</title></circle>
<text class="node-label" x="865.9" y="1125.6">12</text>
<circle class="node" cx="1823.2" cy="807.4" r="25" fill="#2f6f73"><title>13: THERMAL ZONE: HALL-2-1 | group=HALL</title></circle>
<text class="node-label" x="1823.2" y="807.9">13</text>
<circle class="node" cx="1971.7" cy="664.8" r="25" fill="#2f6f73"><title>14: THERMAL ZONE: HALL-2-2 | group=HALL</title></circle>
<text class="node-label" x="1971.7" y="665.3">14</text>
<circle class="node" cx="1957.6" cy="530.1" r="25" fill="#2f6f73"><title>15: THERMAL ZONE: HALL-2-3 | group=HALL</title></circle>
<text class="node-label" x="1957.6" y="530.6">15</text>
<circle class="node" cx="1752.6" cy="342.2" r="25" fill="#2f6f73"><title>16: THERMAL ZONE: HALL-3-1 | group=HALL</title></circle>
<text class="node-label" x="1752.6" y="342.7">16</text>
<circle class="node" cx="1379.3" cy="286.4" r="25" fill="#2f6f73"><title>17: THERMAL ZONE: HALL-3-2 | group=HALL</title></circle>
<text class="node-label" x="1379.3" y="286.9">17</text>
<circle class="node" cx="958.5" cy="294.3" r="25" fill="#2f6f73"><title>18: THERMAL ZONE: HALL-3-3 | group=HALL</title></circle>
<text class="node-label" x="958.5" y="294.8">18</text>
<circle class="node" cx="518.3" cy="444.8" r="25" fill="#2f6f73"><title>19: THERMAL ZONE: HALL-4-1 | group=HALL</title></circle>
<text class="node-label" x="518.3" y="445.3">19</text>
<circle class="node" cx="338.8" cy="567.4" r="25" fill="#2f6f73"><title>20: THERMAL ZONE: HALL-4-2 | group=HALL</title></circle>
<text class="node-label" x="338.8" y="567.9">20</text>
<circle class="node" cx="321.2" cy="713.8" r="25" fill="#2f6f73"><title>21: THERMAL ZONE: HALL-4-3 | group=HALL</title></circle>
<text class="node-label" x="321.2" y="714.3">21</text>
<circle class="node" cx="477.4" cy="871.3" r="25" fill="#2f6f73"><title>22: THERMAL ZONE: HALL-4-4 | group=HALL</title></circle>
<text class="node-label" x="477.4" y="871.8">22</text>
<circle class="node" cx="700.1" cy="1990.0" r="25" fill="#c8672e"><title>23: THERMAL ZONE: P1-1-COMMERCE 1 | group=COMMERCE</title></circle>
<text class="node-label" x="700.1" y="1990.5">23</text>
<circle class="node" cx="809.0" cy="1965.7" r="25" fill="#b08d2f"><title>24: THERMAL ZONE: P1-1-DINING 1 | group=DINING</title></circle>
<text class="node-label" x="809.0" y="1966.2">24</text>
<circle class="node" cx="538.9" cy="1978.3" r="25" fill="#496fa8"><title>25: THERMAL ZONE: P1-1-OFFICE 1 | group=OFFICE</title></circle>
<text class="node-label" x="538.9" y="1978.8">25</text>
<circle class="node" cx="506.4" cy="1933.4" r="25" fill="#496fa8"><title>26: THERMAL ZONE: P1-1-OFFICE 2 | group=OFFICE</title></circle>
<text class="node-label" x="506.4" y="1933.9">26</text>
<circle class="node" cx="610.4" cy="1583.2" r="25" fill="#7b6aa8"><title>27: THERMAL ZONE: P1-10-RESTROOM 1 | group=RESTROOM</title></circle>
<text class="node-label" x="610.4" y="1583.7">27</text>
<circle class="node" cx="208.8" cy="1749.8" r="25" fill="#c8672e"><title>28: THERMAL ZONE: P1-11-COMMERCE 1 | group=COMMERCE</title></circle>
<text class="node-label" x="208.8" y="1750.3">28</text>
<circle class="node" cx="321.5" cy="1773.7" r="25" fill="#c8672e"><title>29: THERMAL ZONE: P1-11-COMMERCE 2 | group=COMMERCE</title></circle>
<text class="node-label" x="321.5" y="1774.2">29</text>
<circle class="node" cx="416.9" cy="1713.5" r="25" fill="#496fa8"><title>30: THERMAL ZONE: P1-11-OFFICE 1 | group=OFFICE</title></circle>
<text class="node-label" x="416.9" y="1714.0">30</text>
<circle class="node" cx="251.1" cy="1715.0" r="25" fill="#496fa8"><title>31: THERMAL ZONE: P1-11-OFFICE 2 | group=OFFICE</title></circle>
<text class="node-label" x="251.1" y="1715.5">31</text>
<circle class="node" cx="958.3" cy="1864.1" r="25" fill="#5d8a3d"><title>32: THERMAL ZONE: P1-2-BREAKROOM 1 | group=BREAKROOM</title></circle>
<text class="node-label" x="958.3" y="1864.6">32</text>
<circle class="node" cx="1045.1" cy="1817.9" r="25" fill="#b08d2f"><title>33: THERMAL ZONE: P1-2-DINING 1 | group=DINING</title></circle>
<text class="node-label" x="1045.1" y="1818.4">33</text>
<circle class="node" cx="1108.7" cy="1857.1" r="25" fill="#7b6aa8"><title>34: THERMAL ZONE: P1-2-RESTROOM 1 | group=RESTROOM</title></circle>
<text class="node-label" x="1108.7" y="1857.6">34</text>
<circle class="node" cx="1090.4" cy="1683.6" r="25" fill="#c8672e"><title>35: THERMAL ZONE: P1-3-COMMERCE 1 | group=COMMERCE</title></circle>
<text class="node-label" x="1090.4" y="1684.1">35</text>
<circle class="node" cx="1197.3" cy="1552.4" r="25" fill="#c8672e"><title>36: THERMAL ZONE: P1-4-COMMERCE 1 | group=COMMERCE</title></circle>
<text class="node-label" x="1197.3" y="1552.9">36</text>
<circle class="node" cx="1204.9" cy="1514.2" r="25" fill="#b08d2f"><title>37: THERMAL ZONE: P1-4-DINING 1 | group=DINING</title></circle>
<text class="node-label" x="1204.9" y="1514.7">37</text>
<circle class="node" cx="1255.9" cy="1384.6" r="25" fill="#c8672e"><title>38: THERMAL ZONE: P1-5-COMMERCE 1 | group=COMMERCE</title></circle>
<text class="node-label" x="1255.9" y="1385.1">38</text>
<circle class="node" cx="1327.3" cy="1244.7" r="25" fill="#c8672e"><title>39: THERMAL ZONE: P1-6-COMMERCE 1 | group=COMMERCE</title></circle>
<text class="node-label" x="1327.3" y="1245.2">39</text>
<circle class="node" cx="1410.7" cy="1119.3" r="25" fill="#b08d2f"><title>40: THERMAL ZONE: P1-7-DINING 1 | group=DINING</title></circle>
<text class="node-label" x="1410.7" y="1119.8">40</text>
<circle class="node" cx="1457.1" cy="1082.2" r="25" fill="#496fa8"><title>41: THERMAL ZONE: P1-7-OFFICE 1 | group=OFFICE</title></circle>
<text class="node-label" x="1457.1" y="1082.7">41</text>
<circle class="node" cx="806.2" cy="1213.3" r="25" fill="#7b6aa8"><title>42: THERMAL ZONE: P1-8-RESTROOM 1 | group=RESTROOM</title></circle>
<text class="node-label" x="806.2" y="1213.8">42</text>
<circle class="node" cx="752.0" cy="1398.9" r="25" fill="#c8672e"><title>43: THERMAL ZONE: P1-9-COMMERCE 1 | group=COMMERCE</title></circle>
<text class="node-label" x="752.0" y="1399.4">43</text>
<circle class="node" cx="1990.8" cy="752.3" r="25" fill="#c8672e"><title>44: THERMAL ZONE: P2-1-COMMERCE 2 | group=COMMERCE</title></circle>
<text class="node-label" x="1990.8" y="752.8">44</text>
<circle class="node" cx="2075.0" cy="719.8" r="25" fill="#c8672e"><title>45: THERMAL ZONE: P2-1-COMMERCE 3 | group=COMMERCE</title></circle>
<text class="node-label" x="2075.0" y="720.3">45</text>
<circle class="node" cx="2058.8" cy="581.9" r="25" fill="#7b6aa8"><title>46: THERMAL ZONE: P2-2-RESTROOM 1 | group=RESTROOM</title></circle>
<text class="node-label" x="2058.8" y="582.4">46</text>
<circle class="node" cx="1713.3" cy="271.4" r="25" fill="#c8672e"><title>47: THERMAL ZONE: P3-1-COMMERCE 1 | group=COMMERCE</title></circle>
<text class="node-label" x="1713.3" y="271.9">47</text>
<circle class="node" cx="1906.9" cy="289.4" r="25" fill="#b08d2f"><title>48: THERMAL ZONE: P3-1-DINING 1 | group=DINING</title></circle>
<text class="node-label" x="1906.9" y="289.9">48</text>
<circle class="node" cx="886.7" cy="230.0" r="25" fill="#b08d2f"><title>49: THERMAL ZONE: P3-2-DINING 1 | group=DINING</title></circle>
<text class="node-label" x="886.7" y="230.5">49</text>
<circle class="node" cx="1094.4" cy="233.9" r="25" fill="#7b6aa8"><title>50: THERMAL ZONE: P3-2-RESTROOM 1 | group=RESTROOM</title></circle>
<text class="node-label" x="1094.4" y="234.4">50</text>
<circle class="node" cx="350.5" cy="481.7" r="25" fill="#c8672e"><title>51: THERMAL ZONE: P4-1-COMMERCE 1 | group=COMMERCE</title></circle>
<text class="node-label" x="350.5" y="482.2">51</text>
<circle class="node" cx="165.0" cy="608.4" r="25" fill="#c8672e"><title>52: THERMAL ZONE: P4-2-COMMERCE 1 | group=COMMERCE</title></circle>
<text class="node-label" x="165.0" y="608.9">52</text>
<circle class="node" cx="206.2" cy="646.1" r="25" fill="#c8672e"><title>53: THERMAL ZONE: P4-2-COMMERCE 2 | group=COMMERCE</title></circle>
<text class="node-label" x="206.2" y="646.6">53</text>
<circle class="node" cx="256.3" cy="777.2" r="25" fill="#c8672e"><title>54: THERMAL ZONE: P4-3-COMMERCE 1 | group=COMMERCE</title></circle>
<text class="node-label" x="256.3" y="777.7">54</text>
<circle class="node" cx="337.9" cy="809.6" r="25" fill="#c8672e"><title>55: THERMAL ZONE: P4-3-COMMERCE 2 | group=COMMERCE</title></circle>
<text class="node-label" x="337.9" y="810.1">55</text>
<text x="2225" y="105" class="legend-title">Node Index</text>
<circle cx="2237" cy="150" r="10" fill="#2f6f73" stroke="#15212f"/>
<text x="2259" y="157" class="group-text">HALL</text>
<circle cx="2237" cy="186" r="10" fill="#c8672e" stroke="#15212f"/>
<text x="2259" y="193" class="group-text">COMMERCE</text>
<circle cx="2237" cy="222" r="10" fill="#b08d2f" stroke="#15212f"/>
<text x="2259" y="229" class="group-text">DINING</text>
<circle cx="2237" cy="258" r="10" fill="#496fa8" stroke="#15212f"/>
<text x="2259" y="265" class="group-text">OFFICE</text>
<circle cx="2237" cy="294" r="10" fill="#7b6aa8" stroke="#15212f"/>
<text x="2259" y="301" class="group-text">RESTROOM</text>
<circle cx="2237" cy="330" r="10" fill="#5d8a3d" stroke="#15212f"/>
<text x="2259" y="337" class="group-text">BREAKROOM</text>
<circle cx="2235" cy="400" r="8" fill="#2f6f73" stroke="#15212f"/>
<text x="2253" y="407" class="legend-text">00. HALL-1-1</text>
<circle cx="2235" cy="432" r="8" fill="#2f6f73" stroke="#15212f"/>
<text x="2253" y="439" class="legend-text">01. HALL-1-10</text>
<circle cx="2235" cy="464" r="8" fill="#2f6f73" stroke="#15212f"/>
<text x="2253" y="471" class="legend-text">02. HALL-1-11</text>
<circle cx="2235" cy="496" r="8" fill="#2f6f73" stroke="#15212f"/>
<text x="2253" y="503" class="legend-text">03. HALL-1-12</text>
<circle cx="2235" cy="528" r="8" fill="#2f6f73" stroke="#15212f"/>
<text x="2253" y="535" class="legend-text">04. HALL-1-13</text>
<circle cx="2235" cy="560" r="8" fill="#2f6f73" stroke="#15212f"/>
<text x="2253" y="567" class="legend-text">05. HALL-1-2</text>
<circle cx="2235" cy="592" r="8" fill="#2f6f73" stroke="#15212f"/>
<text x="2253" y="599" class="legend-text">06. HALL-1-3</text>
<circle cx="2235" cy="624" r="8" fill="#2f6f73" stroke="#15212f"/>
<text x="2253" y="631" class="legend-text">07. HALL-1-4</text>
<circle cx="2235" cy="656" r="8" fill="#2f6f73" stroke="#15212f"/>
<text x="2253" y="663" class="legend-text">08. HALL-1-5</text>
<circle cx="2235" cy="688" r="8" fill="#2f6f73" stroke="#15212f"/>
<text x="2253" y="695" class="legend-text">09. HALL-1-6</text>
<circle cx="2235" cy="720" r="8" fill="#2f6f73" stroke="#15212f"/>
<text x="2253" y="727" class="legend-text">10. HALL-1-7</text>
<circle cx="2235" cy="752" r="8" fill="#2f6f73" stroke="#15212f"/>
<text x="2253" y="759" class="legend-text">11. HALL-1-8</text>
<circle cx="2235" cy="784" r="8" fill="#2f6f73" stroke="#15212f"/>
<text x="2253" y="791" class="legend-text">12. HALL-1-9</text>
<circle cx="2235" cy="816" r="8" fill="#2f6f73" stroke="#15212f"/>
<text x="2253" y="823" class="legend-text">13. HALL-2-1</text>
<circle cx="2235" cy="848" r="8" fill="#2f6f73" stroke="#15212f"/>
<text x="2253" y="855" class="legend-text">14. HALL-2-2</text>
<circle cx="2235" cy="880" r="8" fill="#2f6f73" stroke="#15212f"/>
<text x="2253" y="887" class="legend-text">15. HALL-2-3</text>
<circle cx="2235" cy="912" r="8" fill="#2f6f73" stroke="#15212f"/>
<text x="2253" y="919" class="legend-text">16. HALL-3-1</text>
<circle cx="2235" cy="944" r="8" fill="#2f6f73" stroke="#15212f"/>
<text x="2253" y="951" class="legend-text">17. HALL-3-2</text>
<circle cx="2235" cy="976" r="8" fill="#2f6f73" stroke="#15212f"/>
<text x="2253" y="983" class="legend-text">18. HALL-3-3</text>
<circle cx="2235" cy="1008" r="8" fill="#2f6f73" stroke="#15212f"/>
<text x="2253" y="1015" class="legend-text">19. HALL-4-1</text>
<circle cx="2235" cy="1040" r="8" fill="#2f6f73" stroke="#15212f"/>
<text x="2253" y="1047" class="legend-text">20. HALL-4-2</text>
<circle cx="2235" cy="1072" r="8" fill="#2f6f73" stroke="#15212f"/>
<text x="2253" y="1079" class="legend-text">21. HALL-4-3</text>
<circle cx="2235" cy="1104" r="8" fill="#2f6f73" stroke="#15212f"/>
<text x="2253" y="1111" class="legend-text">22. HALL-4-4</text>
<circle cx="2235" cy="1136" r="8" fill="#c8672e" stroke="#15212f"/>
<text x="2253" y="1143" class="legend-text">23. P1-1-COMMERCE 1</text>
<circle cx="2235" cy="1168" r="8" fill="#b08d2f" stroke="#15212f"/>
<text x="2253" y="1175" class="legend-text">24. P1-1-DINING 1</text>
<circle cx="2235" cy="1200" r="8" fill="#496fa8" stroke="#15212f"/>
<text x="2253" y="1207" class="legend-text">25. P1-1-OFFICE 1</text>
<circle cx="2235" cy="1232" r="8" fill="#496fa8" stroke="#15212f"/>
<text x="2253" y="1239" class="legend-text">26. P1-1-OFFICE 2</text>
<circle cx="2235" cy="1264" r="8" fill="#7b6aa8" stroke="#15212f"/>
<text x="2253" y="1271" class="legend-text">27. P1-10-RESTROOM 1</text>
<circle cx="2675" cy="400" r="8" fill="#c8672e" stroke="#15212f"/>
<text x="2693" y="407" class="legend-text">28. P1-11-COMMERCE 1</text>
<circle cx="2675" cy="432" r="8" fill="#c8672e" stroke="#15212f"/>
<text x="2693" y="439" class="legend-text">29. P1-11-COMMERCE 2</text>
<circle cx="2675" cy="464" r="8" fill="#496fa8" stroke="#15212f"/>
<text x="2693" y="471" class="legend-text">30. P1-11-OFFICE 1</text>
<circle cx="2675" cy="496" r="8" fill="#496fa8" stroke="#15212f"/>
<text x="2693" y="503" class="legend-text">31. P1-11-OFFICE 2</text>
<circle cx="2675" cy="528" r="8" fill="#5d8a3d" stroke="#15212f"/>
<text x="2693" y="535" class="legend-text">32. P1-2-BREAKROOM 1</text>
<circle cx="2675" cy="560" r="8" fill="#b08d2f" stroke="#15212f"/>
<text x="2693" y="567" class="legend-text">33. P1-2-DINING 1</text>
<circle cx="2675" cy="592" r="8" fill="#7b6aa8" stroke="#15212f"/>
<text x="2693" y="599" class="legend-text">34. P1-2-RESTROOM 1</text>
<circle cx="2675" cy="624" r="8" fill="#c8672e" stroke="#15212f"/>
<text x="2693" y="631" class="legend-text">35. P1-3-COMMERCE 1</text>
<circle cx="2675" cy="656" r="8" fill="#c8672e" stroke="#15212f"/>
<text x="2693" y="663" class="legend-text">36. P1-4-COMMERCE 1</text>
<circle cx="2675" cy="688" r="8" fill="#b08d2f" stroke="#15212f"/>
<text x="2693" y="695" class="legend-text">37. P1-4-DINING 1</text>
<circle cx="2675" cy="720" r="8" fill="#c8672e" stroke="#15212f"/>
<text x="2693" y="727" class="legend-text">38. P1-5-COMMERCE 1</text>
<circle cx="2675" cy="752" r="8" fill="#c8672e" stroke="#15212f"/>
<text x="2693" y="759" class="legend-text">39. P1-6-COMMERCE 1</text>
<circle cx="2675" cy="784" r="8" fill="#b08d2f" stroke="#15212f"/>
<text x="2693" y="791" class="legend-text">40. P1-7-DINING 1</text>
<circle cx="2675" cy="816" r="8" fill="#496fa8" stroke="#15212f"/>
<text x="2693" y="823" class="legend-text">41. P1-7-OFFICE 1</text>
<circle cx="2675" cy="848" r="8" fill="#7b6aa8" stroke="#15212f"/>
<text x="2693" y="855" class="legend-text">42. P1-8-RESTROOM 1</text>
<circle cx="2675" cy="880" r="8" fill="#c8672e" stroke="#15212f"/>
<text x="2693" y="887" class="legend-text">43. P1-9-COMMERCE 1</text>
<circle cx="2675" cy="912" r="8" fill="#c8672e" stroke="#15212f"/>
<text x="2693" y="919" class="legend-text">44. P2-1-COMMERCE 2</text>
<circle cx="2675" cy="944" r="8" fill="#c8672e" stroke="#15212f"/>
<text x="2693" y="951" class="legend-text">45. P2-1-COMMERCE 3</text>
<circle cx="2675" cy="976" r="8" fill="#7b6aa8" stroke="#15212f"/>
<text x="2693" y="983" class="legend-text">46. P2-2-RESTROOM 1</text>
<circle cx="2675" cy="1008" r="8" fill="#c8672e" stroke="#15212f"/>
<text x="2693" y="1015" class="legend-text">47. P3-1-COMMERCE 1</text>
<circle cx="2675" cy="1040" r="8" fill="#b08d2f" stroke="#15212f"/>
<text x="2693" y="1047" class="legend-text">48. P3-1-DINING 1</text>
<circle cx="2675" cy="1072" r="8" fill="#b08d2f" stroke="#15212f"/>
<text x="2693" y="1079" class="legend-text">49. P3-2-DINING 1</text>
<circle cx="2675" cy="1104" r="8" fill="#7b6aa8" stroke="#15212f"/>
<text x="2693" y="1111" class="legend-text">50. P3-2-RESTROOM 1</text>
<circle cx="2675" cy="1136" r="8" fill="#c8672e" stroke="#15212f"/>
<text x="2693" y="1143" class="legend-text">51. P4-1-COMMERCE 1</text>
<circle cx="2675" cy="1168" r="8" fill="#c8672e" stroke="#15212f"/>
<text x="2693" y="1175" class="legend-text">52. P4-2-COMMERCE 1</text>
<circle cx="2675" cy="1200" r="8" fill="#c8672e" stroke="#15212f"/>
<text x="2693" y="1207" class="legend-text">53. P4-2-COMMERCE 2</text>
<circle cx="2675" cy="1232" r="8" fill="#c8672e" stroke="#15212f"/>
<text x="2693" y="1239" class="legend-text">54. P4-3-COMMERCE 1</text>
<circle cx="2675" cy="1264" r="8" fill="#c8672e" stroke="#15212f"/>
<text x="2693" y="1271" class="legend-text">55. P4-3-COMMERCE 2</text>
</svg>